<svg width="2366" height="587" viewBox="0 0 2366 587" fill="none" xmlns="http://www.w3.org/2000/svg">
<path d="M1010 148.191V60.6914C880.498 56.3581 638.498 107.692 638.498 329.692C638.498 539.192 891.831 594.358 1010 585.691V499.192C906.498 506.692 725.743 460.692 731.998 329.692C738.798 187.292 891.498 152.191 1010 148.191Z" fill="white"/>
<path d="M1122 244.192H1035C1019.5 128.692 1085 44.7861 1191.5 45.6923C1285.5 46.4922 1329.48 108.693 1339 138.693C1348.53 168.693 1355.5 219.692 1339 256.192C1322.5 292.693 1146.5 504.192 1146.5 504.192H1272V439.692H1355.5V584.693H1041.5V489.192C1041.5 489.192 1201.5 304.692 1232.5 256.192C1263.5 207.693 1272 128.692 1191.5 128.692C1109.15 128.692 1122 208.693 1122 244.192Z" fill="white"/>
<path d="M1489 61.6832H1392V586.683H1489V326.183C1564 395.185 1659 417.908 1709 414.683C2031.28 393.897 1979 37.1977 1709 47.4079C1590 51.9079 1506.5 155.237 1510.5 158.184C1538.4 178.742 1577 206.683 1577 206.683C1577 206.683 1616.5 138.184 1709 128.683C1902.03 108.857 1904 326.183 1709 330.683C1553 334.283 1497.33 207.183 1489 143.183V61.6832Z" fill="url(#paint0_linear_270_65)"/>
<path d="M2063.5 61.1929H1970V157.693H2063.5V61.1929Z" fill="url(#paint1_linear_270_65)"/>
<path d="M2063.5 585.693V197.193H1970V585.693H2063.5Z" fill="url(#paint2_linear_270_65)"/>
<path d="M2365.5 61.1929H2131V585.693H2365.5V501.193H2220.5V362.693H2340V278.693H2220.5V144.193H2365.5V61.1929Z" fill="url(#paint3_linear_270_65)"/>
<path d="M132.339 407.737C193.5 421.988 196.839 396.948 238.339 399.738C278.839 402.461 312.207 450.738 358.839 450.738C434 450.738 477 393.988 512.998 436.5C557 512.491 562 519.991 626.839 585.237C545.035 585.228 323.529 585.237 323.339 585.237L132.339 407.737ZM45.8389 224.238C102.339 224.738 112.339 269.545 147.339 289.045C179.839 302.044 208.839 280.238 252.339 282.738C302.756 285.636 327.339 324.738 366.339 324.738C400.562 324.738 450.339 291.238 502.839 296.738C555.339 302.238 558.339 375.028 502.839 377.238C418.5 377.238 402 407.988 361.839 410.737C302.425 410.737 299.302 372.192 248.839 366.737C211.839 362.737 185.839 380.531 147.339 373.737C92.8392 364.119 108.839 324.238 45.8389 312.238C-19.7352 299.747 -10.6611 223.738 45.8389 224.238ZM80.3389 181.545C216.839 -38.9553 588.339 -11.2622 690.839 23.7379C565.839 93.2376 523.839 193.045 502.839 258.545C502.812 258.542 482.825 256.548 461.839 262.045C448.489 265.541 411.912 280.016 411.839 280.045C355.339 299.544 333.132 267.517 300.839 255.046C216.339 222.411 182.839 277.544 147.339 230.545C129.671 207.153 113.839 196.044 80.3389 181.545ZM416.839 91.7379C379.339 120.571 318.739 180.438 376.339 189.238C433.938 198.038 427.339 127.905 416.839 91.7379ZM331.839 62.7379C284.006 63.0712 197.139 74.1379 232.339 115.738C267.539 157.337 313.339 97.7378 331.839 62.7379Z" fill="url(#paint4_linear_270_65)"/>
<defs>
<linearGradient id="paint0_linear_270_65" x1="1674.92" y1="66.4541" x2="1674.92" y2="551.653" gradientUnits="userSpaceOnUse">
<stop stop-color="#FDA90E"/>
<stop offset="1" stop-color="#FC8021"/>
</linearGradient>
<linearGradient id="paint1_linear_270_65" x1="2177.39" y1="79.9189" x2="2177.39" y2="551.636" gradientUnits="userSpaceOnUse">
<stop stop-color="#FDA90E"/>
<stop offset="1" stop-color="#FC8021"/>
</linearGradient>
<linearGradient id="paint2_linear_270_65" x1="2177.39" y1="79.9189" x2="2177.39" y2="551.636" gradientUnits="userSpaceOnUse">
<stop stop-color="#FDA90E"/>
<stop offset="1" stop-color="#FC8021"/>
</linearGradient>
<linearGradient id="paint3_linear_270_65" x1="2177.39" y1="79.9189" x2="2177.39" y2="551.636" gradientUnits="userSpaceOnUse">
<stop stop-color="#FDA90E"/>
<stop offset="1" stop-color="#FC8021"/>
</linearGradient>
<linearGradient id="paint4_linear_270_65" x1="362.262" y1="20.8942" x2="362.262" y2="547.236" gradientUnits="userSpaceOnUse">
<stop stop-color="#FDA90E"/>
<stop offset="1" stop-color="#FC8021"/>
</linearGradient>
</defs>
</svg>
