<svg width="2366" height="587" viewBox="0 0 2366 587" fill="none" xmlns="http://www.w3.org/2000/svg">
<path d="M1010 148.203V60.703C880.498 56.3697 638.498 107.703 638.498 329.703C638.498 539.203 891.831 594.369 1010 585.702V499.203C906.498 506.703 725.742 460.703 731.998 329.703C738.798 187.303 891.498 152.203 1010 148.203Z" fill="black"/>
<path d="M1122 244.204H1035C1019.5 128.704 1085 44.7977 1191.5 45.7039C1285.5 46.5038 1329.48 108.704 1339 138.704C1348.53 168.704 1355.5 219.704 1339 256.204C1322.5 292.704 1146.5 504.204 1146.5 504.204H1272V439.704H1355.5V584.704H1041.5V489.204C1041.5 489.204 1201.5 304.704 1232.5 256.204C1263.5 207.704 1272 128.704 1191.5 128.704C1109.15 128.704 1122 208.704 1122 244.204Z" fill="black"/>
<path d="M1489 61.6948H1392V586.694H1489V326.195C1564 395.196 1659 417.92 1709 414.695C2031.27 393.909 1979 37.2092 1709 47.4194C1590 51.9195 1506.5 155.249 1510.5 158.196C1538.4 178.753 1577 206.695 1577 206.695C1577 206.695 1616.5 138.196 1709 128.695C1902.03 108.868 1904 326.195 1709 330.695C1553 334.295 1497.33 207.195 1489 143.195V61.6948Z" fill="url(#paint0_linear_270_20)"/>
<path d="M2063.5 61.2044H1970V157.704H2063.5V61.2044Z" fill="url(#paint1_linear_270_20)"/>
<path d="M2063.5 585.704V197.204H1970V585.704H2063.5Z" fill="url(#paint2_linear_270_20)"/>
<path d="M2365.5 61.2044H2131V585.704H2365.5V501.204H2220.5V362.704H2340V278.704H2220.5V144.204H2365.5V61.2044Z" fill="url(#paint3_linear_270_20)"/>
<path d="M132.339 407.748C193.5 422 196.839 396.959 238.339 399.749C278.839 402.472 312.207 450.749 358.839 450.749C434 450.749 477 394 512.998 436.512C556.999 512.503 562 520.003 626.839 585.248C545.039 585.239 323.551 585.248 323.339 585.248L132.339 407.748ZM45.8388 224.248C102.339 224.748 112.339 269.556 147.339 289.056C179.839 302.056 208.839 280.248 252.339 282.748C302.755 285.646 327.339 324.748 366.339 324.748C400.562 324.748 450.339 291.248 502.839 296.748C555.339 302.248 558.338 375.038 502.839 377.248C418.5 377.248 402 407.999 361.839 410.748C302.425 410.748 299.301 372.204 248.839 366.748C211.839 362.748 185.839 380.542 147.339 373.748C92.8391 364.131 108.839 324.248 45.8388 312.248C-19.7352 299.758 -10.6611 223.748 45.8388 224.248ZM80.3388 181.556C216.839 -38.9438 588.339 -11.2518 690.839 23.7482C565.839 93.2479 523.839 193.056 502.839 258.556C502.803 258.552 482.82 256.561 461.839 262.056C448.498 265.55 411.963 280.007 411.839 280.056C355.339 299.556 333.132 267.528 300.839 255.056C216.339 222.422 182.839 277.556 147.339 230.556C129.671 207.165 113.839 196.056 80.3388 181.556ZM416.839 91.7482C379.339 120.582 318.739 180.448 376.339 189.248C433.939 198.048 427.339 127.915 416.839 91.7482ZM331.839 62.7482C284.006 63.0816 197.139 74.1484 232.339 115.748C267.539 157.348 313.339 97.7482 331.839 62.7482Z" fill="url(#paint4_linear_270_20)"/>
<defs>
<linearGradient id="paint0_linear_270_20" x1="1674.92" y1="66.4656" x2="1674.92" y2="551.665" gradientUnits="userSpaceOnUse">
<stop stop-color="#FDA90E"/>
<stop offset="1" stop-color="#FC8021"/>
</linearGradient>
<linearGradient id="paint1_linear_270_20" x1="2177.39" y1="79.9305" x2="2177.39" y2="551.648" gradientUnits="userSpaceOnUse">
<stop stop-color="#FDA90E"/>
<stop offset="1" stop-color="#FC8021"/>
</linearGradient>
<linearGradient id="paint2_linear_270_20" x1="2177.39" y1="79.9305" x2="2177.39" y2="551.648" gradientUnits="userSpaceOnUse">
<stop stop-color="#FDA90E"/>
<stop offset="1" stop-color="#FC8021"/>
</linearGradient>
<linearGradient id="paint3_linear_270_20" x1="2177.39" y1="79.9305" x2="2177.39" y2="551.648" gradientUnits="userSpaceOnUse">
<stop stop-color="#FDA90E"/>
<stop offset="1" stop-color="#FC8021"/>
</linearGradient>
<linearGradient id="paint4_linear_270_20" x1="362.262" y1="20.9055" x2="362.262" y2="547.248" gradientUnits="userSpaceOnUse">
<stop stop-color="#FDA90E"/>
<stop offset="1" stop-color="#FC8021"/>
</linearGradient>
</defs>
</svg>
